<svg xmlns="http://www.w3.org/2000/svg" viewBox="0 0 96 96" role="img" aria-label="banana boss">
  <defs>
    <filter id="shadow" x="-30%" y="-30%" width="160%" height="160%">
      <feDropShadow dx="0" dy="4" stdDeviation="3" flood-color="#000" flood-opacity="0.45"/>
    </filter>
    <linearGradient id="banana" x1="14" y1="18" x2="80" y2="76" gradientUnits="userSpaceOnUse">
      <stop offset="0" stop-color="#fff7a8"/>
      <stop offset="0.45" stop-color="#ffd74a"/>
      <stop offset="1" stop-color="#f6a900"/>
    </linearGradient>
  </defs>
  <g filter="url(#shadow)">
    <path d="M20 30c6 29 26 47 55 44 5-.5 7.5 6.8 2.8 9.1C59 92.2 28.2 75.4 14 43.3 10.8 36 16.8 28 20 30Z" fill="#7c4b16" opacity="0.92"/>
    <path d="M22 23c7 31 26 46 56 43 7-.7 10 8.8 3.8 12.2C61.3 89.6 25.8 70.5 12.7 35.8 9.8 28.1 18.7 19.3 22 23Z" fill="url(#banana)"/>
    <path d="M25.4 30.4c8.5 21.7 24 33.8 45.7 33.6 3.6 0 5.1 4.8 2 6.6-15.6 8.9-40.9-6.4-53.2-35.5-1.6-3.8 4-8.2 5.5-4.7Z" fill="#fff08a" opacity="0.72"/>
    <path d="M19 22c3-6.5 11-7 15-1.7-3.2 1.7-6.6 4.2-9.4 7.5L19 22Z" fill="#6b3d13"/>
    <path d="M77 66c7.4.8 10.5 6.5 7.4 12.5-2.8-2.6-6.4-4.3-10.9-5.1L77 66Z" fill="#6b3d13"/>
    <circle cx="55" cy="42" r="3.2" fill="#1b1020"/>
    <circle cx="70" cy="51" r="3.2" fill="#1b1020"/>
    <path d="M56 58c5 4.8 12.1 5.9 18.2 1.4" fill="none" stroke="#1b1020" stroke-width="3.5" stroke-linecap="round"/>
    <path d="M44 25c-4 2.1-7.3 5.9-9.3 10.2" fill="none" stroke="#fff6b8" stroke-width="3" stroke-linecap="round" opacity="0.8"/>
  </g>
</svg>
